<svg width="2577" height="1216" viewBox="0 0 2577 1216" fill="none" xmlns="http://www.w3.org/2000/svg">
<g clip-path="url(#clip0_330_4)">
<path d="M2562.42 887.631C2560.15 1002.6 2527.75 1107.57 2477.3 1210.95C2477.3 1210.95 2285.23 1210.98 2011.5 1211.03C1332.88 1211.13 152.37 1211.29 152.29 1211.22C151.82 1210.85 151.35 1210.49 150.87 1210.12C95.57 1167.16 75.39 1104.39 87.58 1034.52C87.58 1034.51 87.58 1034.5 87.59 1034.49C100.76 958.401 151.67 875.771 230.63 805.921C343.54 706.051 433.77 679.961 374.5 470.411C357.76 411.191 361.74 357.841 378.35 310.571C430.93 160.831 610.14 72.3106 657.71 52.5306C816.65 -13.6294 1040.77 -10.6194 1209.74 24.8306C1481.24 81.8006 1576.59 234.241 1657.78 317.451C1687.91 348.261 1715.95 369.161 1750.34 371.411C1806.51 375.051 1886.59 344.711 1983.84 335.771C2056.48 329.081 2138.58 334.331 2227.17 374.651C2324.37 418.791 2419.83 504.601 2474.01 583.281C2536.69 674.321 2564.55 777.571 2562.43 887.621L2562.42 887.631Z" fill="#EBF3FA"/>
<g opacity="0.5">
<path d="M2392.1 569.1H1872.24V1209.41H2392.1V569.1Z" fill="#98BAF4"/>
<path d="M2392.1 600.41H1924.09V670.16H2392.1V600.41Z" fill="#EDF4FF"/>
<path d="M2125.84 715.27H1538.72V1211.6H2125.84V715.27Z" fill="#EBF3FF"/>
<path d="M2135.02 697.23H1524.2V715.271H2135.02V697.23Z" fill="white"/>
<path d="M2401.75 560.08H1861.76V578.12H2401.75V560.08Z" fill="white"/>
<path d="M1918.59 760.131H1538.72V852.381H1918.59V760.131Z" fill="#AFCDFB"/>
<path d="M1538.72 774.07H1184.35V970.62H1538.72V774.07Z" fill="#AFCDFB"/>
<path d="M1538.72 1011.51H1184.35V1208.06H1538.72V1011.51Z" fill="#AFCDFB"/>
<path d="M1538.71 970.609H1233.46V1011.5H1538.71V970.609Z" fill="#7FA8E5"/>
<path d="M2392.1 974.24H2155.34V1130.49H2392.1V974.24Z" fill="#AFCDFB"/>
<path d="M2392.1 744.17H2155.34V900.42H2392.1V744.17Z" fill="#AFCDFB"/>
<path d="M2392.1 604.119H1929.02V665.679H2392.1V604.119Z" fill="#AFCDFB"/>
<path d="M1538.72 721.46L2125.84 739.159V715.27H1538.72V721.46Z" fill="#DFEBFD"/>
<path d="M1538.72 772.891H1162.18V792.351H1538.72V772.891Z" fill="white"/>
<path d="M2042.64 990.971H1630.09V1206.49H2042.64V990.971Z" fill="#98BAF4"/>
<path d="M2030.69 1006.04H1643.95V1207.21H2030.69V1006.04Z" fill="white"/>
<path d="M2016.84 1018.76H1658.6V1064.98H2016.84V1018.76Z" fill="#AFCDFB"/>
<path d="M1763.36 1077.54H1658.6V1206.34H1763.36V1077.54Z" fill="#AFCDFB"/>
<path d="M1902.11 1077.54H1773.32V1206.34H1902.11V1077.54Z" fill="#AFCDFB"/>
<path d="M2016.84 1077.54H1910.97V1206.34H2016.84V1077.54Z" fill="#AFCDFB"/>
<path d="M1815.52 1077.54H1902.11V1125.21L1886.68 1206.34H1791.02L1815.52 1077.54Z" fill="#CCE1FF"/>
<path d="M1886.55 1102.05H1790.2V1206.49H1886.55V1102.05Z" fill="white"/>
<path d="M1881.96 1106.77H1794.8V1206.48H1881.96V1106.77Z" fill="#98BAF4"/>
<path d="M1840.01 1106.77H1836.76V1206.48H1840.01V1106.77Z" fill="white"/>
<path d="M1828.99 1156.63C1828.99 1155.49 1829.91 1154.57 1831.05 1154.57C1832.19 1154.57 1833.11 1155.49 1833.11 1156.63C1833.11 1157.77 1832.19 1158.69 1831.05 1158.69C1829.91 1158.69 1828.99 1157.77 1828.99 1156.63Z" fill="white"/>
<path d="M1843.65 1156.63C1843.65 1155.49 1844.57 1154.57 1845.71 1154.57C1846.85 1154.57 1847.77 1155.49 1847.77 1156.63C1847.77 1157.77 1846.85 1158.69 1845.71 1158.69C1844.57 1158.69 1843.65 1157.77 1843.65 1156.63Z" fill="white"/>
<path d="M1691.92 1077.54H1744.96L1728.03 1206.34H1674.99L1691.92 1077.54Z" fill="#CCE1FF"/>
<path d="M1752.68 1018.76L1746.61 1064.98H1693.57L1699.64 1018.76H1752.68Z" fill="#CCE1FF"/>
<path d="M1936.03 1077.54H1989.06L1972.13 1206.34H1919.1L1936.03 1077.54Z" fill="#CCE1FF"/>
<path d="M1996.79 1018.76L1990.71 1064.98H1937.67L1943.75 1018.76H1996.79Z" fill="#CCE1FF"/>
<path d="M1922.36 1018.76L1913.57 1064.98H1817.91L1826.7 1018.76H1922.36Z" fill="#CCE1FF"/>
<path d="M1911.05 1087.03H1911.25L1911.05 1088.06V1087.03Z" fill="#CCE1FF"/>
<path d="M2266 900.42H2187.66L2221.94 744.18H2300.27L2266 900.42Z" fill="#BDD7FD"/>
<path d="M2335.41 1130.49H2257.07L2291.35 974.24H2369.68L2335.41 1130.49Z" fill="#CCE1FF"/>
<path d="M2224 974.24L2189.73 1130.49H2155.34V974.24H2224Z" fill="#CCE1FF"/>
<path d="M2392.1 744.17V900.42H2305.98L2344.23 744.17H2392.1Z" fill="#CCE1FF"/>
<path d="M2048.94 604.119H2042.41V665.679H2048.94V604.119Z" fill="#EDF4FF"/>
<path d="M2180.73 604.119H2174.2V665.679H2180.73V604.119Z" fill="#EDF4FF"/>
<path d="M2309.25 604.119H2302.72V665.679H2309.25V604.119Z" fill="#EDF4FF"/>
<g opacity="0.5">
<path d="M1265.13 844.609H1225.87V906.569H1265.13V844.609Z" fill="#98BAF4"/>
<path d="M1266.74 908.569H1223.49V842.609H1266.74V908.569ZM1227.48 904.579H1262.74V846.609H1227.48V904.579Z" fill="white"/>
<path d="M1263.25 865.33H1226.99V868.32H1263.25V865.33Z" fill="white"/>
<path d="M1263.25 885.949H1226.99V888.939H1263.25V885.949Z" fill="white"/>
<path d="M1246.62 906.58V844.32H1243.63V906.58H1246.62Z" fill="white"/>
<path d="M1378.48 844.609H1339.22V906.569H1378.48V844.609Z" fill="#98BAF4"/>
<path d="M1380.1 908.569H1336.85V842.609H1380.1V908.569ZM1340.84 904.579H1376.1V846.609H1340.84V904.579Z" fill="white"/>
<path d="M1376.6 865.33H1340.34V868.32H1376.6V865.33Z" fill="white"/>
<path d="M1376.6 885.949H1340.34V888.939H1376.6V885.949Z" fill="white"/>
<path d="M1359.97 906.569V844.309H1356.98V906.569H1359.97Z" fill="white"/>
<path d="M1491.83 844.609H1452.57V906.569H1491.83V844.609Z" fill="#98BAF4"/>
<path d="M1493.45 908.569H1450.2V842.609H1493.45V908.569ZM1454.19 904.579H1489.45V846.609H1454.19V904.579Z" fill="white"/>
<path d="M1489.95 865.33H1453.69V868.32H1489.95V865.33Z" fill="white"/>
<path d="M1489.95 885.949H1453.69V888.939H1489.95V885.949Z" fill="white"/>
<path d="M1473.32 906.58V844.32H1470.32V906.58H1473.32Z" fill="white"/>
</g>
<g opacity="0.5">
<path d="M1265.13 1057.08H1225.87V1119.04H1265.13V1057.08Z" fill="#98BAF4"/>
<path d="M1266.74 1121.04H1223.49V1055.08H1266.74V1121.04ZM1227.48 1117.05H1262.74V1059.08H1227.48V1117.05Z" fill="white"/>
<path d="M1263.25 1077.8H1226.99V1080.79H1263.25V1077.8Z" fill="white"/>
<path d="M1263.25 1098.42H1226.99V1101.42H1263.25V1098.42Z" fill="white"/>
<path d="M1246.62 1119.03V1056.78H1243.63V1119.03H1246.62Z" fill="white"/>
<path d="M1378.48 1057.08H1339.22V1119.04H1378.48V1057.08Z" fill="#98BAF4"/>
<path d="M1380.1 1121.04H1336.85V1055.08H1380.1V1121.04ZM1340.84 1117.05H1376.1V1059.08H1340.84V1117.05Z" fill="white"/>
<path d="M1376.6 1077.8H1340.34V1080.79H1376.6V1077.8Z" fill="white"/>
<path d="M1376.6 1098.42H1340.34V1101.42H1376.6V1098.42Z" fill="white"/>
<path d="M1359.96 1119.03V1056.78H1356.97V1119.03H1359.96Z" fill="white"/>
<path d="M1491.83 1057.08H1452.57V1119.04H1491.83V1057.08Z" fill="#98BAF4"/>
<path d="M1493.45 1121.04H1450.2V1055.08H1493.45V1121.04ZM1454.19 1117.05H1489.45V1059.08H1454.19V1117.05Z" fill="white"/>
<path d="M1489.95 1077.8H1453.69V1080.79H1489.95V1077.8Z" fill="white"/>
<path d="M1489.95 1098.42H1453.69V1101.42H1489.95V1098.42Z" fill="white"/>
<path d="M1473.33 1119.04V1056.79H1470.33V1119.04H1473.33Z" fill="white"/>
</g>
<path d="M2143.13 925.77H1529.59V947.359H2143.13V925.77Z" fill="#D4E6FF"/>
<path d="M2070.95 1202.02H1612.57V1211.6H2070.95V1202.02Z" fill="#7FA8E5"/>
<path d="M1601.04 1211.6C1601.04 1211.6 1598.49 1189.06 1621.34 1183.35C1644.19 1177.64 1653.15 1157.24 1679.68 1174.37C1706.21 1191.51 1697.81 1211.59 1697.81 1211.59H1601.04V1211.6Z" fill="#ACD29A"/>
</g>
<path d="M1038.23 850.059C1038.23 850.059 1045.53 875.709 1043.81 882.129C1042.08 888.539 1034.39 900.509 1030.97 900.089C1027.55 899.659 1030.97 859.039 1030.97 859.039L1038.24 850.059H1038.23Z" fill="#FFB27D"/>
<path d="M914.27 651.359C911.61 646.229 972.3 627.759 973.26 678.379C973.26 678.379 1086.95 675.589 1032.66 612.219C1013.87 590.279 1015.8 572.149 1016.37 555.259C1016.94 538.369 1004.66 489.299 962.59 494.239C962.59 494.239 951.57 489.749 937.82 496.889C906.54 513.119 836.48 670.019 914.28 651.349L914.27 651.359Z" fill="#163560"/>
<path d="M1043.78 857.759C1043.78 857.759 1043.14 860.839 1036.75 862.389C1033.8 863.109 1029.62 863.489 1023.72 863.109C1022.46 863.019 1021.12 862.899 1019.69 862.739C1016.98 862.439 1013.98 861.999 1010.65 861.369L1013 722.179L1003.2 613.559C1003.2 613.559 1024.12 623.449 1034.38 655.519C1042.26 680.149 1043.58 786.219 1043.77 834.119C1043.83 848.599 1043.78 857.759 1043.78 857.759Z" fill="#AEC3FF"/>
<g opacity="0.3">
<path d="M1043.78 857.76C1043.78 857.76 1043.14 860.84 1036.75 862.39C1033.8 863.11 1029.62 863.49 1023.72 863.11L1025.61 759.42C1025.61 759.42 1027.16 816.04 1043.77 834.13C1043.83 848.61 1043.78 857.77 1043.78 857.77V857.76Z" fill="#8C9DF4"/>
</g>
<path d="M837.35 1152.12C837.35 1152.12 824.61 1163.74 827.1 1172.01C829.59 1180.27 841.08 1185.78 842.64 1195.87C844.19 1205.97 850.41 1211.47 856 1211.47H882.66C882.66 1211.47 886.78 1204.36 876.83 1202.22C866.89 1200.08 863.14 1188.21 863.76 1177.2C864.38 1166.19 862.83 1151.5 862.83 1151.5L841.7 1146.6L837.35 1152.11V1152.12Z" fill="#23417C"/>
<path d="M945.17 1157.05C945.17 1157.05 940.59 1206.3 946.18 1209.05L1017.75 1208.9C1017.75 1208.9 1017.75 1200.64 1006.25 1198.8C994.75 1196.96 974.56 1190.23 971.14 1175.24C967.72 1160.25 945.16 1157.04 945.16 1157.04L945.17 1157.05Z" fill="#23417C"/>
<path d="M1003.62 752.879C1003.62 752.879 1024.26 817.109 1025.58 838.979C1026.91 860.849 986.13 1149.64 984.49 1159.71C982.94 1169.21 971.15 1175.26 971.15 1175.26C971.15 1175.26 965.73 1178.46 957.98 1176.27C947.24 1173.24 943.84 1169.61 943.84 1169.61C943.84 1169.61 927.78 963.649 937.72 890.079C947.66 816.509 947.78 752.879 947.78 752.879H1003.61H1003.62Z" fill="#233862"/>
<path d="M916.19 750.959C916.19 750.959 884.71 793.189 881.78 821.739C878.85 850.289 877.18 950.569 870.92 978.409C864.67 1006.24 841.7 1059.8 841.7 1146.61C841.7 1146.61 844.09 1151.59 851.46 1154.24C853.82 1155.09 856.98 1155.91 860.04 1156.61C866.12 1158 872.36 1155.03 875.13 1149.45C890.66 1118.18 940.13 1017.34 942.66 996.409C944.45 981.599 954.99 892.679 989.06 835.149C997.24 821.339 996.75 761.129 996.75 761.129L916.18 750.969L916.19 750.959Z" fill="#2B478B"/>
<path d="M890.11 668.249C890.11 668.249 889.04 683.289 890.11 701.329C890.82 713.289 902.92 729.309 904.63 733.279C908.94 743.219 913.8 744.839 913.8 744.839L951.38 754.049L954.53 774.169C954.53 774.169 986.06 787.639 1007.94 766.789C1026.98 748.649 1025.24 691.869 1017.62 662.049C1010 632.229 998.36 611.519 998.36 611.519C998.36 611.519 970.11 600.369 920.09 608.699L890.12 668.259L890.11 668.249Z" fill="#2B478B"/>
<path d="M933.61 605.6C933.61 605.6 917.82 608.24 908.19 611.43L901.1 698.06H966.38L941.85 633.71L933.6 605.6H933.61Z" fill="#AEC3FF"/>
<path d="M966.4 698.058L959.23 964.958C959.23 964.958 923.46 981.938 855.14 964.958L872.76 680.828L966.4 698.058Z" fill="#AEC3FF"/>
<path d="M856.09 760.079L904.4 802.139C907.89 805.179 913.18 804.809 916.22 801.319L977.86 730.529C980.9 727.039 980.53 721.749 977.04 718.709L928.73 676.649C925.24 673.609 919.94 673.979 916.91 677.469L855.27 748.259C852.23 751.749 852.6 757.039 856.09 760.079Z" fill="#C65447"/>
<path d="M927.55 754.77C928.24 754.95 953.21 757.889 953.21 763.049C953.21 769.019 945.89 777.01 938.99 776.63C936.19 776.48 923.31 764.63 923.31 764.63L927.55 754.77Z" fill="#FFB27D"/>
<path d="M940.38 605.958C943.22 599.068 944.88 588.568 944.83 575.578L946.72 575.948L978.44 582.228C978.44 582.228 977.72 592.208 977.7 601.618C977.7 601.698 977.7 601.778 977.7 601.848C977.66 610.018 983.22 618.208 970.12 621.448C966.07 622.448 934.42 620.418 940.38 605.948V605.958Z" fill="#FFB27D"/>
<path d="M978.44 582.229C978.44 582.229 977.72 592.209 977.7 601.619C959.95 601.119 950.56 584.929 946.72 575.949L978.44 582.229Z" fill="#E8945B"/>
<path d="M984.37 591.14C984.37 591.14 942.37 591.83 942.34 565.67C942.31 539.51 936.87 521.98 963.69 520.43C990.51 518.88 995.73 528.86 997.86 537.59C999.99 546.32 995.3 590.29 984.37 591.14Z" fill="#FFB27D"/>
<path d="M982.81 519.79C982.81 519.79 971.31 550.48 953.66 555.02C936.01 559.56 928.36 554.83 928.36 554.83C928.36 554.83 941.9 544.08 944.71 525.3C944.71 525.3 974.14 505.18 982.81 519.78V519.79Z" fill="#163560"/>
<path d="M979.96 522.28C979.96 522.28 988.49 525.47 992 531.69C995.43 537.77 998.36 545.83 997.68 555.71C997.68 555.71 1006.34 534.85 996.61 523.05C986.28 510.53 979.97 522.29 979.97 522.29L979.96 522.28Z" fill="#163560"/>
<path d="M927.55 754.769C927.55 754.769 933.54 752.849 937.54 753.409C941.54 753.969 944.5 753.329 944.5 754.449C944.5 755.569 939.34 756.089 938.24 756.629C937.14 757.169 927.56 754.769 927.56 754.769H927.55Z" fill="#FFB27D"/>
<path d="M920.09 608.689C920.09 608.689 890.27 610.779 878.85 638.559C867.42 666.339 845.74 712.989 845.74 720.839C845.74 728.689 857.85 752.879 922.9 766.789C922.9 766.789 929.63 759.709 929.22 754.119C929.22 754.119 888.61 719.239 888.72 715.159C888.93 707.449 895.38 697.269 931.03 661.609C940.72 651.909 920.09 608.699 920.09 608.699V608.689Z" fill="#AEC3FF"/>
<path d="M951.65 652.309C951.65 652.309 940.46 621.679 942.65 598.629C942.65 598.629 933.92 600.829 929.4 607.329C929.4 607.329 927.35 642.579 933.77 658.939C933.77 658.939 943.32 659.369 945.41 658.239C945.41 658.239 941.24 665.299 941.88 666.099C942.52 666.899 966.41 698.059 966.41 698.059L951.66 652.309H951.65Z" fill="#8C9DF4"/>
<path d="M1001.03 684.378L1008.08 958.878C1008.08 958.878 1024.76 959.518 1034.38 949.258L1025.61 651.838C1025.61 651.838 1016.43 616.048 998.36 611.518L980.29 606.988L1001.03 684.378Z" fill="#AEC3FF"/>
<path d="M977.7 601.619C977.7 601.619 977.71 605.879 978.81 613.509C981.77 634.179 1003.79 675.619 1001.29 694.109C1001.29 694.109 1003.61 661.919 1003.61 655.079L997.2 650.589L1005.54 647.169C1005.54 647.169 989.98 608.329 977.72 601.619H977.7Z" fill="#8C9DF4"/>
<path d="M944.651 859.163L882.485 854.652L882.025 860.996L944.191 865.506L944.651 859.163Z" fill="#8C9DF4"/>
<g opacity="0.3">
<path d="M882.02 861C882.02 861 877.49 899.55 882.02 903.08C886.55 906.61 933.87 911.1 938.27 907.57C942.67 904.04 944.19 865.51 944.19 865.51L882.02 861Z" fill="#8C9DF4"/>
</g>
<path d="M547.23 268.979C547.23 268.979 572.62 226.299 633.32 231.039C633.32 231.039 721.46 159.909 815.44 221.559C815.44 221.559 915.35 206.279 989.34 234.779C1038.67 253.779 1054.96 273.719 1054.96 273.719L547.22 268.979H547.23Z" fill="#F8FCFF"/>
<path d="M1064.84 226.65C1064.84 226.65 1083.37 179.86 1127.69 185.06C1127.69 185.06 1192.03 107.07 1260.65 174.66C1260.65 174.66 1333.59 157.91 1387.6 189.16C1423.61 210 1435.51 231.85 1435.51 231.85L1064.84 226.65Z" fill="#F8FCFF"/>
<path d="M1643.78 517.871C1643.78 517.871 1656.52 486.391 1686.98 489.891C1686.98 489.891 1731.21 437.421 1778.37 482.891C1778.37 482.891 1828.5 471.621 1865.63 492.651C1890.38 506.671 1898.56 521.371 1898.56 521.371L1643.78 517.871Z" fill="#F8FCFF"/>
<path d="M924.87 386.089C924.87 386.089 939.61 360.069 974.87 362.959C974.87 362.959 1026.06 319.589 1080.65 357.179C1080.65 357.179 1138.68 347.869 1181.65 365.239C1210.3 376.829 1219.77 388.979 1219.77 388.979L924.87 386.089Z" fill="#F8FCFF"/>
<path d="M2307.96 1059.07V1076.69C2307.96 1078.26 2307.59 1079.77 2306.92 1081.09C2305.3 1084.33 2301.93 1086.56 2298.08 1086.56H2294.92C2289.51 1086.56 2285.05 1082.13 2285.05 1076.69V1059.07C2285.05 1057.21 2285.58 1055.49 2286.48 1054V1053.97C2288.23 1051.1 2291.36 1049.19 2294.92 1049.19H2298.08C2303.52 1049.19 2307.95 1053.65 2307.95 1059.06L2307.96 1059.07Z" fill="#233862"/>
<g opacity="0.3">
<path d="M2306.93 1081.1C2305.31 1084.34 2301.94 1086.57 2298.09 1086.57H2294.93C2289.52 1086.57 2285.06 1082.14 2285.06 1076.7V1059.08C2285.06 1057.22 2285.59 1055.5 2286.49 1054.01C2286.68 1055.1 2290.87 1079.27 2306.92 1081.1H2306.93Z" fill="#233862"/>
</g>
<path d="M2151.47 1188.03H2200.26V1138.79H2149.36L2151.47 1188.03Z" fill="#172944"/>
<path d="M2305.33 1083.93L2065.61 1089.84V963.43H2223.03C2238.04 963.43 2251.78 971.83 2258.62 985.18L2268.92 1005.29L2305.33 1083.93Z" fill="white"/>
<path d="M2169.15 1180.02C2169.15 1193.39 2176.05 1208.13 2176.05 1208.13H2187.72C2197.97 1208.13 2206.29 1195.54 2206.29 1180.02C2206.29 1164.5 2186.3 1151.91 2176.05 1151.91C2165.8 1151.91 2169.15 1164.5 2169.15 1180.02Z" fill="#233862"/>
<path d="M2176.04 1208.13C2186.3 1208.13 2194.61 1195.54 2194.61 1180.02C2194.61 1164.5 2186.3 1151.91 2176.04 1151.91C2165.78 1151.91 2157.47 1164.5 2157.47 1180.02C2157.47 1195.54 2165.78 1208.13 2176.04 1208.13Z" fill="#2B478B"/>
<path d="M2176.28 1201.2C2184.01 1201.2 2190.27 1191.72 2190.27 1180.02C2190.27 1168.32 2184.01 1158.84 2176.28 1158.84C2168.55 1158.84 2162.29 1168.32 2162.29 1180.02C2162.29 1191.72 2168.55 1201.2 2176.28 1201.2Z" fill="#AFCDFB"/>
<path d="M2303.37 1180.02C2303.37 1193.39 2310.27 1208.13 2310.27 1208.13H2321.94C2332.2 1208.13 2340.51 1195.54 2340.51 1180.02C2340.51 1164.5 2320.52 1151.91 2310.27 1151.91C2300.02 1151.91 2303.37 1164.5 2303.37 1180.02Z" fill="#233862"/>
<path d="M2291.69 1180.02C2291.69 1195.55 2300 1208.13 2310.26 1208.13C2320.52 1208.13 2328.83 1195.54 2328.83 1180.02C2328.83 1164.5 2320.52 1151.91 2310.26 1151.91C2300 1151.91 2291.69 1164.5 2291.69 1180.02Z" fill="#2B478B"/>
<path d="M1995.14 1180.02C1995.14 1193.39 2002.04 1208.13 2002.04 1208.13H2013.71C2023.97 1208.13 2032.28 1195.54 2032.28 1180.02C2032.28 1164.5 2012.29 1151.91 2002.04 1151.91C1991.79 1151.91 1995.14 1164.5 1995.14 1180.02Z" fill="#233862"/>
<path d="M1983.47 1180.02C1983.47 1195.55 1991.78 1208.13 2002.04 1208.13C2012.3 1208.13 2020.61 1195.54 2020.61 1180.02C2020.61 1164.5 2012.3 1151.91 2002.04 1151.91C1991.78 1151.91 1983.47 1164.5 1983.47 1180.02Z" fill="#2B478B"/>
<path d="M2359 1166.75C2359.03 1178.5 2349.93 1183.33 2338.2 1183.33L2206.29 1184.47C2206.69 1182.16 2200.88 1183.33 2200.88 1180.86C2200.88 1162.68 2189.97 1147.93 2176.55 1147.93C2163.13 1147.93 2150.32 1157.81 2150.32 1175.99C2150.32 1178.46 2147.39 1181.83 2147.79 1184.14L2077.11 1177.94C2077.11 1177.94 2069.19 1152.15 2069.59 1134.16C2069.91 1118.5 2069.91 1087.83 2068.98 1080.35C2068.98 1079.23 2146.46 1079.1 2166.02 1079.02C2168.67 1078.99 2170.26 1078.99 2170.42 1078.99L2170.69 1079.18L2170.98 1079.39C2174.59 1081.91 2194.81 1096.08 2207.36 1104.39C2218.43 1111.69 2300.1 1114.66 2332.13 1115.56C2340.09 1115.77 2345 1115.85 2345 1115.85C2345 1115.85 2349.38 1120.33 2353.25 1127.42C2356.22 1132.91 2358.87 1139.97 2358.93 1147.69C2358.96 1152.49 2358.98 1158.28 2358.98 1163.96C2359.01 1164.89 2359.01 1165.82 2359.01 1166.75H2359Z" fill="white"/>
<path d="M2286 1079H2178.27C2175.78 1079 2173.52 1077.54 2172.49 1075.28L2145.82 1015.95C2144.94 1014.01 2146.38 1011.81 2148.5 1011.81H2262.15C2264.64 1011.81 2266.93 1013.3 2267.94 1015.6L2287.04 1059.25L2291.82 1070.16C2293.62 1074.33 2290.57 1079 2286.01 1079H2286Z" fill="#98BAF4"/>
<path d="M2235.82 1163.96C2235.8 1165.83 2235.72 1167.58 2235.61 1169.13C2234.84 1179.46 2224.46 1188.02 2224.46 1188.02H2200.26C2200.66 1185.71 2200.87 1183.32 2200.87 1180.85C2200.87 1174.67 2199.6 1168.88 2197.42 1163.95C2193.14 1154.35 2185.4 1147.92 2176.54 1147.92C2167.68 1147.92 2159.9 1154.35 2155.62 1163.95C2153.45 1168.89 2148.34 1174.29 2148.34 1180.47C2148.34 1182.94 2146.23 1182.89 2146.63 1185.2L2065.59 1188.02V963.43H2135.57L2135.9 1005.28C2135.9 1005.28 2137.08 1011.55 2139.47 1017.16C2141.61 1022.16 2144.45 1028.83 2147.55 1036.09C2153.92 1050.97 2161.36 1068.33 2166.01 1079.02C2168.34 1084.43 2169.99 1088.12 2170.41 1088.92C2171.72 1091.41 2191.13 1101.93 2207.55 1111.27C2211.65 1113.6 2215.56 1115.85 2218.95 1117.89C2223.78 1120.8 2227.56 1123.26 2229.35 1124.87C2233.83 1128.91 2236.06 1149.87 2235.82 1163.95V1163.96Z" fill="#DFEBFD"/>
<path d="M2344.99 1115.86H2217.3L2170.68 1079.19L2170.41 1079H2299.21L2335.89 1108.51L2344.99 1115.86Z" fill="white"/>
<path d="M2233.83 1137.4L2222.29 1136.26C2218.26 1135.86 2214.99 1132.84 2214.28 1128.86L2211.63 1114.27C2211.58 1114.03 2211.55 1113.82 2211.58 1113.58C2219.81 1118.3 2226.73 1122.52 2229.36 1124.88C2231.27 1126.61 2232.78 1131.38 2233.84 1137.41L2233.83 1137.4Z" fill="#A8302D"/>
<path d="M2268.93 1005.29H2135.91C2135.91 1005.29 2135.4 996.779 2132.06 987.059C2129.09 978.469 2123.95 968.899 2114.96 963.439H2223.66C2241.38 963.439 2257.08 972.899 2263.32 987.059C2263.61 987.649 2263.87 988.229 2264.09 988.819C2265.96 993.739 2267.65 999.239 2268.93 1005.29Z" fill="white"/>
<path d="M2233.86 1137.4L2222.29 1136.26C2218.26 1135.86 2214.99 1132.84 2214.28 1128.86L2211.63 1114.27C2211.58 1114.03 2211.55 1113.79 2211.58 1113.55C2219.81 1118.3 2226.73 1122.52 2229.36 1124.88C2231.27 1126.61 2232.78 1131.38 2233.87 1137.41L2233.86 1137.4Z" fill="#A2C2DD"/>
<path d="M2359 1166.75C2359.03 1178.5 2352 1189.14 2336.59 1188.54L2198.74 1188.56C2199.14 1186.25 2200.21 1182.92 2200.21 1180.45C2200.21 1174.27 2199.61 1168.9 2197.44 1163.96H2358.98C2359.01 1164.89 2359.01 1165.82 2359.01 1166.75H2359Z" fill="#233862"/>
<path d="M2152.18 1180.87C2152.18 1183.34 2152.37 1185.73 2152.76 1188.03H2065.59V1163.96H2155.62C2153.44 1168.9 2152.17 1174.68 2152.17 1180.86L2152.18 1180.87Z" fill="#233862"/>
<path d="M2269.1 1116.89H2321.32C2322.99 1116.89 2324.26 1119.14 2324.01 1121.63L2322.16 1139.78C2321.89 1142.45 2320.37 1144.42 2318.58 1144.42H2275.56C2272.8 1144.42 2270.37 1141.69 2269.57 1137.7L2266.47 1122.27C2265.93 1119.59 2267.26 1116.89 2269.11 1116.89H2269.1Z" fill="#233862"/>
<path d="M2287.03 1059.26C2225.44 1056.1 2183.78 1023.15 2171.2 1011.82H2262.14C2264.63 1011.82 2266.92 1013.31 2267.93 1015.61L2287.03 1059.26Z" fill="#AFCDFB"/>
<path d="M2090.24 963.43V1176.97L1857.28 1180.02V963.43H2090.24Z" fill="white"/>
<path d="M2268.93 1005.29H2135.91C2135.91 1005.29 2135.4 996.781 2132.06 987.061H2263.32C2263.61 987.651 2263.87 988.231 2264.09 988.821C2265.96 993.741 2267.65 999.241 2268.93 1005.29Z" fill="#DFEBFD"/>
<path d="M2353.24 1127.43C2352.5 1128.65 2351.54 1129.45 2350.51 1129.63L2332.6 1132.95C2331.09 1133.24 2329.92 1130.62 2330.32 1127.91L2332.07 1115.86L2332.12 1115.57L2332.47 1113.1C2332.79 1110.98 2333.72 1109.36 2334.86 1108.91L2335.9 1108.51L2345 1115.86C2345 1115.86 2349.38 1120.34 2353.25 1127.43H2353.24Z" fill="#233862"/>
<path d="M2229.34 1111.27H1857.28V1130.2H2229.34V1111.27Z" fill="#EA6A60"/>
<path d="M2090.24 1002.35H1857.28V1021.28H2090.24V1002.35Z" fill="#EA6A60"/>
<path d="M1940.6 1065.85C1940.6 1047.54 1955.45 1032.69 1973.76 1032.69C1992.07 1032.69 2006.92 1047.54 2006.92 1065.85C2006.92 1084.16 1992.07 1099.01 1973.76 1099.01C1955.45 1099.01 1940.6 1084.16 1940.6 1065.85Z" fill="#EA6A60"/>
<path d="M1973.76 1095.21C1965.92 1095.21 1958.55 1092.16 1953 1086.61C1947.45 1081.06 1944.4 1073.69 1944.4 1065.85C1944.4 1058.01 1947.45 1050.64 1953 1045.09C1958.54 1039.54 1965.92 1036.49 1973.76 1036.49C1981.6 1036.49 1988.97 1039.54 1994.52 1045.09C2000.06 1050.63 2003.12 1058.01 2003.12 1065.85C2003.12 1073.69 2000.07 1081.06 1994.52 1086.61C1988.98 1092.16 1981.6 1095.21 1973.76 1095.21ZM1973.76 1039.2C1966.64 1039.2 1959.95 1041.97 1954.91 1047.01C1949.88 1052.05 1947.1 1058.74 1947.1 1065.86C1947.1 1072.98 1949.87 1079.67 1954.91 1084.71C1959.95 1089.74 1966.64 1092.52 1973.76 1092.52C1980.88 1092.52 1987.57 1089.75 1992.61 1084.71C1997.65 1079.67 2000.42 1072.98 2000.42 1065.86C2000.42 1058.74 1997.65 1052.05 1992.61 1047.01C1987.58 1041.98 1980.88 1039.2 1973.76 1039.2Z" fill="white"/>
<path d="M1992.72 1061.06H1978.55V1046.89H1968.97V1061.06H1954.8V1070.64H1968.97V1084.82H1978.55V1070.64H1992.72V1061.06Z" fill="white"/>
<path d="M2255.75 1139.58L2233.86 1137.41H2233.83L2222.29 1136.27C2218.26 1135.87 2214.99 1132.85 2214.28 1128.87L2211.63 1114.28C2211.58 1114.04 2211.55 1113.83 2211.58 1113.59V1113.56C2211.45 1110.48 2214.26 1107.99 2217.42 1108.63L2251.52 1115.55C2253.7 1116 2255.42 1117.62 2256 1119.74L2260.01 1134.55C2260.75 1137.26 2258.55 1139.88 2255.76 1139.59L2255.75 1139.58Z" fill="#233862"/>
<path d="M2136.36 1022.49L2159.31 1079.01H2119.93C2119.93 1079.01 2111.85 1077.66 2110.82 1061.15C2109.71 1043.53 2109.72 1013.12 2109.72 1013.12L2127 1013.04C2133.59 1014.04 2134.62 1017.65 2136.36 1022.49Z" fill="#98BAF4"/>
<path d="M2147.62 1049.99C2147.62 1049.99 2149.61 1072.83 2138.33 1079.09H2159.4L2147.62 1049.99Z" fill="#233862"/>
<path d="M2150.72 1065.27C2150.72 1065.27 2145.96 1061.88 2145.56 1059.08V1075.06H2151.78L2150.72 1065.28V1065.27Z" fill="#233862"/>
<path d="M2145.55 1059.07V1076.69C2145.55 1078.26 2145.18 1079.77 2144.51 1081.09C2142.89 1084.33 2139.52 1086.56 2135.67 1086.56H2132.51C2127.1 1086.56 2122.64 1082.13 2122.64 1076.69V1059.07C2122.64 1057.21 2123.17 1055.49 2124.07 1054V1053.97C2125.82 1051.1 2128.95 1049.19 2132.51 1049.19H2135.67C2141.11 1049.19 2145.54 1053.65 2145.54 1059.06L2145.55 1059.07Z" fill="#233862"/>
<path d="M2090.46 1180.87C2090.46 1183.34 2090.8 1185.73 2091.53 1188.03H1931.13V1163.96H2096.8C2092.8 1168.9 2090.45 1174.68 2090.45 1180.86L2090.46 1180.87Z" fill="#233862"/>
<path d="M2016.6 1180.87C2016.6 1183.34 2016.94 1185.73 2017.67 1188.03H1857.27V1163.96H2022.94C2018.94 1168.9 2016.59 1174.68 2016.59 1180.86L2016.6 1180.87Z" fill="#233862"/>
<path d="M1933.37 1188.05H1876.07C1874.86 1182.88 1871.21 1146.05 1903.33 1146.05C1932.51 1146.05 1934.66 1179.65 1933.38 1188.05H1933.37Z" fill="#172944"/>
<path d="M1894 1180.02C1894 1193.39 1900.9 1208.13 1900.9 1208.13H1912.57C1922.83 1208.13 1931.14 1195.54 1931.14 1180.02C1931.14 1164.5 1911.15 1151.91 1900.9 1151.91C1890.65 1151.91 1894 1164.5 1894 1180.02Z" fill="#233862"/>
<path d="M1882.33 1180.02C1882.33 1195.55 1890.64 1208.13 1900.9 1208.13C1911.16 1208.13 1919.47 1195.54 1919.47 1180.02C1919.47 1164.5 1911.16 1151.91 1900.9 1151.91C1890.64 1151.91 1882.33 1164.5 1882.33 1180.02Z" fill="#2B478B"/>
<path d="M1901.13 1201.2C1908.86 1201.2 1915.12 1191.72 1915.12 1180.02C1915.12 1168.32 1908.86 1158.84 1901.13 1158.84C1893.4 1158.84 1887.14 1168.32 1887.14 1180.02C1887.14 1191.72 1893.4 1201.2 1901.13 1201.2Z" fill="#AFCDFB"/>
<path d="M1180.84 526.88C1180.84 526.88 1169.48 502.74 1171.77 490.01C1174.06 477.28 1173.53 460.38 1190.51 453.85C1207.49 447.32 1208.99 453.61 1227.44 451.65C1245.32 449.75 1251.71 472.39 1253.4 482.01C1256.98 502.33 1250.86 515.06 1245.47 521.92C1240.81 527.85 1238.7 530.82 1238.7 530.82L1180.85 526.88H1180.84Z" fill="#233862"/>
<path d="M1133.66 1209.06C1133.66 1209.06 1133.66 1197.15 1135.36 1193.19C1137.06 1189.23 1143.28 1173.11 1143.28 1173.11H1167.6C1167.6 1173.11 1172.13 1187.82 1172.41 1192.62C1172.69 1197.43 1172.41 1209.05 1172.41 1209.05H1133.66V1209.06Z" fill="#233862"/>
<path d="M1288.1 1209.06C1288.1 1209.06 1288.1 1197.15 1286.4 1193.19C1284.7 1189.23 1278.48 1173.11 1278.48 1173.11H1254.16C1254.16 1173.11 1249.63 1187.82 1249.35 1192.62C1249.07 1197.43 1249.35 1209.05 1249.35 1209.05H1288.1V1209.06Z" fill="#233862"/>
<path d="M1136.71 796.68C1136.71 796.68 1140.96 926.63 1134.6 1000.78C1128.24 1074.93 1134.64 1178.11 1134.64 1178.11C1134.64 1178.11 1154.99 1189.33 1177.05 1178.11C1177.05 1178.11 1201.24 1034.87 1201.09 1000.78C1200.93 964.48 1227.42 802.35 1227.42 802.35L1136.7 796.69L1136.71 796.68Z" fill="#6BB7BF"/>
<path d="M1287.22 1178.11C1287.22 1178.11 1266.87 1189.33 1244.81 1178.11C1244.81 1178.11 1220.62 1034.87 1220.77 1000.78C1220.84 985.451 1216.15 947.661 1210.72 909.141C1203.28 856.441 1194.44 802.351 1194.44 802.351L1288.68 796.461C1288.68 796.461 1280.91 926.631 1287.27 1000.78C1293.63 1074.93 1287.22 1178.11 1287.22 1178.11Z" fill="#6BB7BF"/>
<path d="M1155.02 585.369C1155.02 585.369 1119.96 589.529 1112.27 621.029C1104.57 652.529 1074.3 732.569 1104.57 750.649C1104.57 750.649 1136.64 707.679 1148.82 673.049C1161.01 638.419 1155.02 585.369 1155.02 585.369Z" fill="#AEC3FF"/>
<path d="M1274.2 602.18C1274.2 602.18 1309.47 597.74 1317.17 629.24C1324.87 660.74 1349.47 731.07 1319.2 749.16C1319.2 749.16 1284.97 707.69 1272.79 673.05C1260.6 638.42 1274.2 602.18 1274.2 602.18Z" fill="#AEC3FF"/>
<path d="M1190.65 540.711C1190.65 540.711 1189.79 567.23 1186.4 579.1L1159.54 597.841L1260.65 612.97L1236.54 579.651C1236.54 579.651 1229.26 544.101 1233.08 530.951C1236.9 517.801 1190.66 540.711 1190.66 540.711H1190.65Z" fill="#FFB27D"/>
<path d="M1190.5 544.369C1190.5 544.369 1198.5 563.619 1213.56 563.189C1228.62 562.769 1232.05 545.729 1232.05 545.729L1190.51 544.359L1190.5 544.369Z" fill="#ED985F"/>
<path d="M1211.83 555.76C1200.92 555.57 1180.83 541.04 1180.83 523.04V494.96C1180.83 488.39 1185.41 483.01 1191.01 483.01H1232.64C1238.24 483.01 1242.82 488.39 1242.82 494.96V521.45C1242.82 540.32 1224.34 555.98 1211.82 555.76H1211.83Z" fill="#FFB27D"/>
<path d="M1290.08 854.56C1212 868.03 1128.29 857.12 1128.29 857.12L1136.06 699.33C1135.85 697.05 1135.7 694.7 1135.64 692.3C1135.55 689.14 1135.61 685.41 1135.81 681.26C1137.37 648.15 1147.38 588.57 1155.01 585.37C1155.01 585.37 1166.35 581.16 1186.4 579.1C1186.4 579.5 1198.03 596.51 1211.84 598.4C1220.42 595.01 1227.16 592.11 1236.55 579.65C1242.05 580.29 1247.84 581.09 1253.98 582.25C1254.43 582.33 1254.89 582.42 1255.35 582.51C1262.08 583.83 1269.25 585.59 1276.93 588.05C1276.93 588.05 1286.84 591.9 1284.65 661.02L1290.09 854.56H1290.08Z" fill="#ABDDDA"/>
<path d="M1203.14 537.67C1203.14 537.67 1206.54 542.27 1212.47 542.1C1218.41 541.94 1221.2 537.67 1221.2 537.67C1221.2 537.67 1211.18 536.03 1203.14 537.67Z" fill="white"/>
<path d="M1128.29 733.579L1123.93 968.529C1123.93 968.529 1159.13 977.629 1189.39 979.559L1197.23 692.349L1186.46 595.139L1176.67 579.109C1176.67 579.109 1144.3 581.639 1124.92 597.429C1111.7 608.199 1105.59 644.939 1105.59 644.939L1136.06 676.949L1128.3 733.599L1128.29 733.579Z" fill="#AEC3FF"/>
<path d="M1294.9 733.58L1299.26 968.53C1299.26 968.53 1264.06 977.63 1233.8 979.56L1227.43 700.91L1236.73 595.13L1246.52 579.1C1246.52 579.1 1278.8 581.75 1298.27 597.42C1319.16 614.23 1323.35 655.62 1323.35 655.62L1287.13 676.94L1294.89 733.59L1294.9 733.58Z" fill="#AEC3FF"/>
<path d="M1104.56 750.66C1139.99 760.2 1159.92 735.551 1242.83 701.461L1240.32 688.23C1240.32 688.23 1145 689.34 1128.3 698.38C1106.58 710.14 1101.66 749.871 1104.57 750.651L1104.56 750.66Z" fill="#FFB27D"/>
<path d="M1173.71 679.19C1173.71 679.19 1137.91 677.16 1137.53 695.42L1170.63 693.92L1173.72 679.19H1173.71Z" fill="#FFB27D"/>
<path d="M1268.46 688.51C1268.46 688.51 1295.25 681.72 1299.74 699.66C1304.23 717.6 1261.22 699.66 1261.22 699.66L1268.46 688.51Z" fill="#ED985F"/>
<path d="M1201.3 719.88C1201.3 719.88 1191.11 707.62 1166.46 692.09L1208.31 699.99L1221.08 710.46L1215.26 713.42L1201.3 719.88Z" fill="#ED985F"/>
<path d="M1243.62 689.86L1279.3 687.25L1276.81 697.44L1243.62 689.86Z" fill="#ED985F"/>
<path d="M1137.53 695.419C1137.53 695.419 1162.01 691.229 1161.58 690.909C1161.15 690.589 1152.68 688.019 1150.74 688.989C1148.8 689.949 1137.53 695.419 1137.53 695.419Z" fill="#ED985F"/>
<path d="M1188.84 565.369C1188.84 565.369 1174.02 573.569 1171.42 581.249C1171.42 581.249 1164.24 612.519 1173.71 633.569L1188.84 629.899L1181.07 639.449C1181.07 639.449 1185.08 682.889 1197.23 692.339C1197.23 692.339 1187.75 576.999 1188.84 565.369Z" fill="#8C9DF4"/>
<path d="M1234.07 565.369C1234.07 565.369 1248.89 573.569 1251.49 581.249C1251.49 581.249 1260.96 610.309 1251.49 631.369L1234.07 629.899L1246.53 640.179C1246.53 640.179 1239.59 691.449 1227.44 700.899C1227.44 700.899 1235.16 576.999 1234.07 565.359V565.369Z" fill="#8C9DF4"/>
<path d="M1319.2 749.159C1319.2 749.159 1245.66 741.179 1159.53 686.839L1173.7 679.189C1173.7 679.189 1286.65 691.449 1300.81 702.089C1323.02 718.779 1335.85 745.279 1319.2 749.159Z" fill="#FFB27D"/>
<path d="M1173.71 643.119H1149.56V653.729H1173.71V643.119Z" fill="#EBF3FA"/>
<path d="M1197.88 483.01C1197.88 483.01 1208.98 493.09 1223.18 491.1C1237.38 489.11 1237.05 483.17 1239.03 485.68C1241.02 488.19 1241.23 508.59 1243.99 509.92L1245.46 483.01L1217.3 466.82L1176.9 471.47L1180.83 510.89C1180.83 510.89 1180.08 496.44 1186.2 492.28C1192.32 488.12 1197.87 483 1197.87 483L1197.88 483.01Z" fill="#233862"/>
<path d="M305.71 1208.18C305.71 1208.18 305.71 1196.27 307.41 1192.31C309.11 1188.35 315.33 1172.23 315.33 1172.23H339.65C339.65 1172.23 344.18 1186.94 344.46 1191.75C344.74 1196.56 344.46 1208.18 344.46 1208.18H305.71Z" fill="#233862"/>
<path d="M460.14 1208.18C460.14 1208.18 460.14 1196.27 458.44 1192.31C456.74 1188.35 450.52 1172.23 450.52 1172.23H426.2C426.2 1172.23 421.67 1186.94 421.39 1191.75C421.11 1196.56 421.39 1208.18 421.39 1208.18H460.14Z" fill="#233862"/>
<path d="M308.76 795.801C308.76 795.801 313.02 925.751 306.65 999.901C300.29 1074.05 306.7 1177.24 306.7 1177.24C306.7 1177.24 327.05 1188.46 349.11 1177.24C349.11 1177.24 373.3 1034 373.15 999.901C372.99 963.601 399.48 801.471 399.48 801.471L308.76 795.811V795.801Z" fill="#2B478B"/>
<path d="M459.26 1177.23C459.26 1177.23 438.91 1188.45 416.85 1177.23C416.85 1177.23 392.66 1033.99 392.81 999.9C392.88 984.57 388.19 946.79 382.76 908.27C375.32 855.57 366.48 801.48 366.48 801.48L460.72 795.59C460.72 795.59 452.95 925.76 459.31 999.9C465.67 1074.05 459.26 1177.23 459.26 1177.23Z" fill="#2B478B"/>
<path d="M392.82 999.89C392.89 984.56 388.2 946.78 382.77 908.26C388.41 885.25 402.16 863.1 402.16 863.1C419.55 911.89 392.83 999.89 392.83 999.89H392.82Z" fill="#233862"/>
<path d="M327.06 584.49C327.06 584.49 292 588.65 284.31 620.15C276.61 651.65 246.34 731.69 276.61 749.78C276.61 749.78 308.68 706.81 320.86 672.18C333.05 637.55 327.06 584.5 327.06 584.5V584.49Z" fill="#FFB27D"/>
<path d="M446.25 601.301C446.25 601.301 481.52 596.861 489.22 628.361C496.92 659.861 521.52 730.191 491.25 748.281C491.25 748.281 457.02 706.811 444.84 672.171C432.65 637.541 446.25 601.301 446.25 601.301Z" fill="#FFB27D"/>
<path d="M362.7 539.83C362.7 539.83 361.84 566.34 358.45 578.22L331.59 596.96L432.7 612.09L408.59 578.77C408.59 578.77 401.31 543.22 405.13 530.07C408.95 516.92 362.71 539.83 362.71 539.83H362.7Z" fill="#FFB27D"/>
<path d="M362.55 543.49C362.55 543.49 370.55 562.74 385.61 562.31C400.67 561.89 404.1 544.85 404.1 544.85L362.56 543.48L362.55 543.49Z" fill="#ED985F"/>
<path d="M353.56 527.911C353.56 527.911 348.7 503.631 345.3 496.281C341.91 488.931 339.08 456.121 376.69 454.421C376.69 454.421 391.11 456.121 399.03 451.311C399.03 451.311 399.03 456.121 397.05 457.811C397.05 457.811 410.06 454.701 420.24 466.011C430.42 477.321 413.45 516.921 414.3 526.251L353.55 527.901L353.56 527.911Z" fill="#2C3A64"/>
<path d="M383.88 554.881C372.97 554.691 352.88 540.161 352.88 522.161V494.081C352.88 487.511 357.46 482.131 363.06 482.131H404.69C410.29 482.131 414.87 487.511 414.87 494.081V520.571C414.87 539.441 396.39 555.101 383.87 554.881H383.88Z" fill="#FFB27D"/>
<path d="M352.88 509.07C352.88 509.07 352.94 492.2 366.3 489.6C379.66 487.01 409.57 497.82 413.82 485.52C418.06 473.22 356.01 473.43 352.88 481.28C349.76 489.13 352.88 509.07 352.88 509.07Z" fill="#2C3A64"/>
<path d="M466.45 660.661L462.13 853.681C384.05 867.151 300.34 856.251 300.34 856.251L308.11 698.461C307.91 696.181 307.75 693.831 307.69 691.431C307.6 688.271 307.66 684.541 307.86 680.391C309.42 647.281 319.43 587.701 327.06 584.491C327.06 584.491 338.4 580.281 358.45 578.221C358.45 578.621 370.08 595.631 383.89 597.521C392.47 594.131 399.21 591.231 408.6 578.771C414.1 579.411 419.89 580.211 426.03 581.371C426.48 581.451 426.94 581.541 427.4 581.631C434.13 582.951 441.31 584.711 448.98 587.171C448.98 587.171 458.9 591.021 456.7 660.141L466.46 660.651L466.45 660.661Z" fill="#ABDDDA"/>
<path d="M375.19 536.791C375.19 536.791 378.59 541.391 384.52 541.221C390.46 541.061 393.25 536.791 393.25 536.791C393.25 536.791 383.23 535.151 375.19 536.791Z" fill="white"/>
<path d="M276.61 749.78C312.04 759.32 331.97 734.67 414.88 700.58L412.37 687.35C412.37 687.35 317.05 688.46 300.35 697.51C278.63 709.27 273.71 749 276.62 749.78H276.61Z" fill="#FFB27D"/>
<path d="M343.47 580.36L335.12 605.09L334.73 606.22L334.61 606.55L334.01 608.36L323.66 638.99L322.63 642.04L311.24 675.77C310.17 675.87 309.12 675.96 308.1 676.04C278.46 678.12 263.78 669.28 263.78 669.28C263.78 669.28 269.87 629.84 284.62 607.39C294.27 592.7 316.47 585.66 330.67 582.54C331.13 582.45 331.57 582.35 332 582.26C338.8 580.84 343.45 580.35 343.45 580.35L343.47 580.36Z" fill="#ABDDDA"/>
<path d="M438.64 584.49C438.64 584.49 464.85 588.34 482.17 608.93C499.49 629.52 503.98 665.44 503.98 665.44C503.98 665.44 479.93 675.7 451.71 673.14C423.49 670.57 438.65 584.5 438.65 584.5L438.64 584.49Z" fill="#ABDDDA"/>
<path d="M443.89 639.18H407.73V652.94H443.89V639.18Z" fill="#EBF3FA"/>
<path d="M324.93 668.761L326.63 667.98C326.53 667.75 316.26 644.921 323.17 620.241C325.18 613.071 331.36 607.611 338.56 606.651C345.34 605.751 351.49 609.041 355.43 615.681C364.78 631.431 347.76 669.561 347.59 669.941L349.3 670.711C349.34 670.611 353.74 660.811 356.89 649.141C361.16 633.311 361.21 621.73 357.05 614.72C352.71 607.41 345.88 603.79 338.32 604.79C330.39 605.84 323.57 611.84 321.37 619.73C314.27 645.1 324.82 668.531 324.93 668.761Z" fill="#2B478B"/>
<path d="M351.05 671.051C351.45 669.611 350.61 668.131 349.18 667.731C347.75 667.331 346.26 668.171 345.86 669.601C345.46 671.031 346.3 672.521 347.73 672.921C349.16 673.321 350.65 672.481 351.05 671.051Z" fill="#2B478B"/>
<path d="M328.59 669.15C328.99 667.72 328.15 666.23 326.72 665.83C325.29 665.43 323.8 666.27 323.4 667.7C323 669.13 323.84 670.62 325.27 671.02C326.7 671.42 328.19 670.58 328.59 669.15Z" fill="#2B478B"/>
<path d="M341.97 606.391C341.97 606.391 341.88 606.391 341.83 606.371C341.48 606.291 341.27 605.951 341.35 605.601C341.39 605.421 345.52 587.511 354.71 577.141C354.94 576.871 355.35 576.851 355.62 577.091C355.88 577.321 355.91 577.731 355.67 577.991C346.7 588.121 342.65 605.711 342.61 605.881C342.54 606.181 342.28 606.381 341.99 606.381L341.97 606.391Z" fill="#2B478B"/>
<path d="M345.75 678.311C345.75 678.311 309.95 676.281 309.57 694.541L342.67 693.041L345.75 678.311Z" fill="#FFB27D"/>
<path d="M440.5 687.631C440.5 687.631 467.29 680.841 471.78 698.781C476.27 716.721 433.26 698.781 433.26 698.781L440.5 687.631Z" fill="#ED985F"/>
<path d="M428.31 608.681C428.05 608.681 427.8 608.521 427.71 608.261C421.5 591.251 410.76 578.762 410.66 578.642C410.43 578.372 410.46 577.971 410.72 577.731C410.99 577.501 411.39 577.531 411.63 577.791C411.74 577.921 422.63 590.571 428.92 607.811C429.04 608.141 428.87 608.511 428.54 608.631C428.47 608.661 428.39 608.671 428.32 608.671L428.31 608.681Z" fill="#2B478B"/>
<path d="M434.57 609.432C434.57 605.972 431.76 603.162 428.3 603.162C424.84 603.162 422.03 605.972 422.03 609.432C422.03 612.892 424.84 615.702 428.3 615.702C431.76 615.702 434.57 612.902 434.57 609.432Z" fill="#2B478B"/>
<path d="M431.16 609.432C431.16 607.852 429.88 606.582 428.31 606.582C426.74 606.582 425.46 607.862 425.46 609.432C425.46 611.002 426.74 612.282 428.31 612.282C429.88 612.282 431.16 611.002 431.16 609.432Z" fill="#6980E2"/>
<path d="M373.35 719.011C373.35 719.011 363.16 706.751 338.51 691.221L380.36 699.121L393.13 709.591L387.31 712.551L373.35 719.011Z" fill="#ED985F"/>
<path d="M415.66 688.981L451.34 686.371L448.85 696.561L415.66 688.981Z" fill="#ED985F"/>
<path d="M491.25 748.281C491.25 748.281 417.71 740.301 331.58 685.961L345.75 678.311C345.75 678.311 458.7 690.571 472.86 701.211C495.07 717.901 507.9 744.401 491.25 748.281Z" fill="#FFB27D"/>
<path d="M309.57 694.54C309.57 694.54 334.05 690.35 333.62 690.03C333.19 689.71 324.72 687.14 322.78 688.11C320.84 689.07 309.57 694.54 309.57 694.54Z" fill="#ED985F"/>
<path d="M1408.93 682.051C1407.69 684.391 1399.46 772.021 1405.93 783.561C1412.4 795.091 1442.93 761.581 1443.68 705.021C1444.32 657.371 1408.93 682.061 1408.93 682.061V682.051Z" fill="#FFB27D"/>
<path d="M1348.57 818.435L1469.2 855.822L1495.56 770.764L1374.93 733.377L1348.57 818.435Z" fill="#233862"/>
<path d="M1406.07 1187.32L1418.5 1191.95C1418.5 1191.95 1472.47 1117.1 1479.11 1051.24C1480.3 1039.48 1479.9 1028.09 1477.33 1017.57C1477.33 1017.57 1477.86 1014.56 1478.78 1009.23C1479.21 1006.74 1479.73 1003.75 1480.33 1000.32C1482.08 990.271 1484.5 976.511 1487.26 960.851C1493.61 924.811 1501.84 878.731 1508.23 844.861L1504.88 843.781L1468.65 832.091L1461.16 808.311L1434.19 801.211C1434.19 801.211 1428.16 813.001 1422.78 868.681C1421.79 875.981 1420.88 884.041 1420.2 892.771C1418.1 919.431 1417.95 952.501 1422.77 990.311C1424.01 999.991 1425.57 1009.98 1427.51 1020.25C1428.93 1027.78 1429.14 1038.03 1428.54 1049.81C1425.82 1103.65 1406.06 1187.32 1406.06 1187.32H1406.07Z" fill="#2B478B"/>
<path d="M1420.21 892.771L1478.79 1009.22C1479.22 1006.73 1479.74 1003.74 1480.34 1000.31C1482.09 990.261 1484.51 976.501 1487.27 960.841C1493.62 924.801 1501.85 878.721 1508.24 844.851L1504.89 843.771L1468.66 832.081L1461.17 808.301L1434.2 801.201C1434.2 801.201 1428.17 812.991 1422.79 868.671C1421.8 875.971 1420.89 884.031 1420.21 892.761V892.771Z" fill="#233862"/>
<path d="M1445.98 816.15L1447.34 804.52C1470.06 810.55 1530.76 787.66 1530.76 787.66C1530.76 787.66 1552.77 807.01 1549.88 853.38C1548.47 876.01 1545.89 972.19 1543.2 1000.65C1542.23 1010.96 1541.38 1018.31 1541.03 1021.24C1541.03 1021.25 1541.03 1021.26 1541.03 1021.27C1540.92 1022.16 1541.24 1023.01 1541.69 1023.79C1545.65 1030.51 1548.93 1037.51 1551.62 1044.68C1578.03 1115.05 1547.55 1201.72 1547.55 1201.72L1539.64 1198.53C1539.64 1198.53 1522.3 1102.08 1508.21 1059.47C1505.82 1052.24 1503.52 1046.56 1501.42 1043.17C1495.29 1033.28 1489.61 1017.12 1484.45 997.91C1474.7 961.58 1466.84 914.31 1461.62 877.83C1460.9 877.86 1446 816.16 1446 816.16L1445.98 816.15Z" fill="#2B478B"/>
<path d="M1501.56 1208.18H1564.14C1564.14 1208.18 1565.64 1198.64 1562.37 1191.4C1559.24 1184.46 1554.33 1181.3 1555.51 1172.9C1551.53 1176.99 1545.05 1181.58 1536 1180.36C1534.89 1182.16 1528.84 1191.78 1525.14 1194.44C1521.05 1197.38 1502.81 1196.33 1501.55 1208.18H1501.56Z" fill="#233862"/>
<path d="M1367.18 1208.18H1429.76C1429.76 1208.18 1432.1 1198.2 1427.99 1191.4C1424.35 1185.39 1425.75 1181.97 1428.44 1176.99C1425.61 1178.15 1421.94 1179.21 1417.9 1178.98C1414.78 1178.8 1411.49 1177.39 1408.59 1175.71C1405.9 1178.78 1394.36 1191.85 1390.76 1194.44C1386.67 1197.38 1368.43 1196.33 1367.17 1208.18H1367.18Z" fill="#233862"/>
<path d="M1514.22 494.881C1514.71 493.201 1520.65 475.241 1548.75 481.341C1548.75 481.341 1534.64 479.511 1530.75 484.931C1530.75 484.931 1541.96 479.851 1548.95 484.161C1555.94 488.481 1557.03 502.911 1555.97 507.301C1554.91 511.691 1547.12 524.731 1541.99 524.711C1540.05 524.711 1537.98 524.051 1536.15 523.241C1536.93 525.571 1537.62 528.101 1538.2 530.871C1543.54 556.501 1526.43 575.901 1517.65 571.061C1512.01 567.951 1507.7 577.821 1507.7 577.821L1461.08 515.511C1461.08 515.511 1493.89 476.391 1514.22 494.891V494.881Z" fill="#2C3A64"/>
<path d="M1474.78 660.432C1513.39 672.482 1519.55 611.952 1517.09 611.642C1512.93 607.932 1507.41 593.602 1507.58 572.012L1505.69 572.372L1474.08 578.502C1474.08 578.502 1474.75 588.452 1474.74 597.812C1474.73 605.132 1474.28 612.102 1472.78 613.692C1470.32 614.032 1468.85 614.262 1468.85 614.262C1468.85 614.262 1468.85 614.262 1468.83 614.292C1468.36 614.942 1464.48 657.212 1474.78 660.432Z" fill="#FFB27D"/>
<path d="M1474.08 578.511C1474.08 578.511 1474.76 588.451 1474.74 597.821C1492.42 597.391 1501.82 581.301 1505.69 572.381L1474.08 578.511Z" fill="#ED985F"/>
<path d="M1468.14 587.351C1468.14 587.351 1509.96 588.201 1510.09 562.151C1510.22 536.101 1515.71 518.671 1489.01 517.021C1462.32 515.371 1457.08 525.291 1454.92 533.971C1452.76 542.651 1457.26 586.451 1468.14 587.341V587.351Z" fill="#FFB27D"/>
<path d="M1456.22 519.501C1462.72 511.691 1467.59 513.431 1470.32 515.801C1493.23 503.321 1507.88 521.961 1507.88 521.961C1510.6 540.661 1524.04 551.421 1524.04 551.421C1524.04 551.421 1516.4 556.101 1498.84 551.511C1493.48 550.111 1488.7 546.281 1484.64 541.631C1491.71 553.581 1501.35 562.201 1501.35 562.201C1480.4 552.411 1472.08 523.191 1471.26 520.101C1468.7 522.381 1463.65 527.341 1462.09 532.221C1459.98 538.851 1458.99 552.501 1455.01 552.021C1455.01 552.021 1446.46 531.211 1456.21 519.501H1456.22Z" fill="#2C3A64"/>
<path d="M1512.74 604.512C1512.74 604.512 1519.31 606.652 1519.66 611.292C1519.66 611.292 1502.05 644.192 1482.58 646.062L1512.74 604.512Z" fill="#91CECF"/>
<path d="M1420.94 761.001L1405.83 847.171C1414.75 852.631 1423.36 857.311 1431.64 861.331C1433.93 854.591 1438.17 846.971 1438.44 846.501C1437.23 850.931 1440.28 860.741 1442.19 866.141C1519.26 899.341 1565.78 873.831 1565.78 873.831C1554.22 788.711 1562.79 648.571 1560.71 638.551C1556.76 619.531 1519.67 611.271 1519.67 611.271C1506.1 635.041 1482.58 646.041 1482.58 646.041C1473.73 637.301 1471.43 613.891 1471.43 613.891L1455.97 617.691C1445.97 620.151 1436.71 625.061 1429.3 632.211C1428.64 632.861 1427.97 633.521 1427.34 634.201C1419.7 642.381 1399.81 695.111 1399.81 695.111C1399.81 695.111 1403.98 709.601 1411.65 716.901C1415.57 720.631 1420.68 724.161 1426.74 727.861L1420.94 760.981V761.001Z" fill="#ABDDDA"/>
<path d="M1482.58 646.051C1482.58 646.051 1472.93 614.111 1474.05 609.971C1474.05 609.971 1466.49 610.911 1465.83 615.281C1465.83 615.281 1474.38 641.941 1482.58 646.051Z" fill="#91CECF"/>
<path d="M1477.65 572.421C1477.65 572.421 1475.79 576.491 1473.18 576.941C1470.57 577.391 1466.46 577.371 1465.53 576.941C1464.6 576.511 1463.14 573.641 1462.52 572.751C1462.52 572.751 1467.21 572.241 1477.04 572.421H1477.66H1477.65Z" fill="white"/>
<path d="M1411.65 716.921C1415.71 720.501 1420.68 724.181 1426.74 727.881C1426.74 727.881 1438.32 684.571 1434.87 681.551C1431.42 678.531 1425.08 707.021 1411.64 716.921H1411.65Z" fill="#91CECF"/>
<path d="M1580.02 667.551C1580.02 667.551 1634 741.041 1628.76 766.001C1624.59 785.881 1569.97 831.581 1569.97 831.581L1555.87 822.481C1555.87 822.481 1589.98 773.051 1586.99 758.571C1584.66 747.301 1550.84 704.601 1550.84 704.601L1580.02 667.551Z" fill="#FFB27D"/>
<path d="M1543.98 620.432C1543.98 620.432 1573.92 636.512 1599.69 687.552C1599.69 687.552 1584.49 707.782 1554.21 717.602C1523.94 727.422 1524.96 668.932 1524.96 668.932L1543.98 620.432Z" fill="#ABDDDA"/>
<path d="M1481.06 677.881L1443.93 677.971L1443.69 708.461L1459.98 717.631L1480.22 709.821L1481.06 677.881Z" fill="#91CECF"/>
<path d="M1559.52 823.401C1559.52 823.401 1544.29 817.601 1535.77 819.871C1530.96 821.151 1522.03 838.151 1527.59 840.711C1533.15 843.271 1539.43 834.191 1546.27 835.901C1553.11 837.611 1561.58 847.551 1569.97 831.571L1559.52 823.391V823.401Z" fill="#FFB27D"/>
<path d="M1558.7 821.481C1558.7 821.481 1552.85 818.831 1550.2 816.991C1547.55 815.151 1545.95 818.431 1550.2 821.481C1554.45 824.531 1555.97 823.161 1555.97 823.161L1558.7 821.481Z" fill="#FFB27D"/>
<path d="M1352.89 819.621C1352.89 819.621 1370.16 811.421 1373.68 820.621C1377.2 829.821 1371.12 837.541 1365.34 835.721C1359.55 833.911 1349.23 827.751 1352.89 819.621Z" fill="#FFB27D"/>
<path d="M1526.54 709.031L1525.19 707.731C1525.36 707.551 1542.58 689.381 1544.19 663.791C1544.66 656.361 1540.62 649.161 1534.14 645.891C1528.03 642.811 1521.14 643.891 1515.24 648.851C1501.22 660.641 1504.72 702.251 1504.75 702.671L1502.88 702.841C1502.88 702.731 1501.95 692.031 1502.83 679.971C1504.02 663.621 1507.79 652.671 1514.03 647.421C1520.54 641.951 1528.18 640.781 1534.99 644.221C1542.13 647.831 1546.59 655.741 1546.07 663.911C1544.41 690.201 1526.72 708.841 1526.55 709.031H1526.54Z" fill="#2B478B"/>
<path d="M1501.12 702.591C1501.21 701.101 1502.5 699.971 1503.98 700.071C1505.47 700.161 1506.6 701.441 1506.5 702.931C1506.41 704.421 1505.12 705.551 1503.64 705.451C1502.15 705.361 1501.02 704.071 1501.12 702.591Z" fill="#2B478B"/>
<path d="M1522.96 708.2C1523.05 706.71 1524.33 705.58 1525.82 705.68C1527.31 705.77 1528.44 707.05 1528.34 708.54C1528.25 710.03 1526.97 711.16 1525.48 711.06C1523.99 710.97 1522.86 709.69 1522.96 708.2Z" fill="#2B478B"/>
<path d="M1531.23 644.571C1531.23 644.571 1531.18 644.571 1531.16 644.571C1530.81 644.531 1530.55 644.211 1530.6 643.861C1530.62 643.681 1532.58 625.731 1527.46 613.221C1527.33 612.891 1527.48 612.521 1527.81 612.381C1528.14 612.241 1528.51 612.401 1528.65 612.731C1533.9 625.551 1531.9 643.821 1531.88 644.001C1531.84 644.331 1531.57 644.571 1531.24 644.571H1531.23Z" fill="#2B478B"/>
<path d="M1452.55 649.401H1452.53C1452.18 649.391 1451.9 649.091 1451.91 648.731C1452.61 630.391 1459.09 615.001 1459.15 614.851C1459.29 614.521 1459.67 614.371 1459.99 614.511C1460.32 614.651 1460.47 615.031 1460.33 615.351C1460.27 615.501 1453.88 630.681 1453.19 648.781C1453.18 649.121 1452.89 649.401 1452.55 649.401Z" fill="#2B478B"/>
<path d="M1447.01 652.002C1445.95 648.712 1447.76 645.182 1451.05 644.112C1454.34 643.052 1457.87 644.862 1458.94 648.152C1460 651.442 1458.19 654.972 1454.9 656.042C1451.61 657.102 1448.08 655.292 1447.01 652.002Z" fill="#2B478B"/>
<path d="M1450.26 650.952C1449.78 649.452 1450.6 647.842 1452.1 647.362C1453.6 646.882 1455.21 647.702 1455.69 649.202C1456.17 650.702 1455.35 652.312 1453.85 652.792C1452.35 653.272 1450.74 652.452 1450.26 650.952Z" fill="#6980E2"/>
<path d="M604.62 1208.29H645.05C644.75 1206.17 643.72 1199.72 641.82 1193.78C641.16 1191.71 640.4 1189.7 639.53 1187.95C635.6 1180.1 610.62 1185.09 610.62 1185.09C610.62 1185.09 608.3 1187.08 606.49 1194.67C605.69 1198.01 604.98 1202.45 604.61 1208.28L604.62 1208.29Z" fill="#233862"/>
<path d="M678.84 588.211C678.84 588.211 711.05 593.871 718.34 612.881C725.62 631.891 766.77 939.041 766.77 939.041C766.77 939.041 746.4 955.181 702.66 949.391C658.92 943.591 678.84 588.211 678.84 588.211Z" fill="#A3BBFF"/>
<path d="M726.79 1196.8C726.9 1202.3 727.59 1207.51 729.59 1209.56H809.55C808.53 1206.67 805.65 1202.31 797.45 1200.98C788.12 1199.47 773.58 1194.98 765.09 1186C762.06 1182.81 759.81 1179.05 758.83 1174.65C755.07 1157.9 727.72 1179.78 727.72 1179.78C727.72 1179.78 726.62 1188.6 726.79 1196.79V1196.8Z" fill="#233862"/>
<path d="M761.22 1184.82C752.28 1187.67 735.21 1196.37 724.35 1192.28C717.34 1189.64 678.14 1076.26 675.6 1026.67C675.41 1023.06 674.7 1018.03 673.59 1011.9C671.27 999.1 667.21 981.52 662.53 962.11C649.99 910.11 633.02 845.06 633.39 824.27C633.96 792 729.56 817.51 729.56 817.51C729.56 817.51 736.14 843.98 737.45 882.31C740.05 958.38 747.18 1086.88 766.6 1176.12C767.42 1179.91 764.92 1183.65 761.21 1184.82H761.22Z" fill="#59A9AD"/>
<path d="M694.87 824.391L644.33 1190.68C644.33 1190.68 622.14 1196.03 604.87 1191.75C604.87 1191.75 590.08 996.941 591.31 949.841C592.54 902.741 580.69 823.821 594.02 815.111C607.34 806.411 694.87 824.381 694.87 824.381V824.391Z" fill="#6BB7BF"/>
<path d="M587.63 604.98C587.63 604.98 640.74 570.64 678.84 588.2C684.91 591 691.83 598.81 696.79 604.27C710.56 619.44 737.47 860.47 737.47 860.47C737.47 860.47 661.09 886.34 587.64 851.69V604.98H587.63Z" fill="white"/>
<path d="M681.86 587.33C681.86 587.33 735.63 609.37 742.91 626.3C750.19 643.23 773.86 747.2 773.86 759.39C773.86 771.58 732.65 762.12 726.02 742.45C720.51 726.12 701.93 675.96 692.13 644.23L681.86 587.33Z" fill="#A3BBFF"/>
<path d="M670.69 604.12C658.95 606.42 641.71 603.97 629.08 595.65C634.78 582.04 637.12 571.29 637.95 564.33C638 563.96 638.03 563.6 638.07 563.26C638.45 559.65 638.39 557.21 638.22 556.09H668.57C668.57 556.09 676.87 559.88 676.87 562.5C676.87 563.9 676.88 565.24 676.91 566.52C676.97 570.01 677.11 573.06 677.29 575.67C677.87 584.19 678.84 588.2 678.84 588.2C678.84 588.2 682.55 601.79 670.7 604.12H670.69Z" fill="#FFB27D"/>
<path d="M677.28 575.681C654.29 580.121 640.94 567.561 637.95 564.341C637.53 563.881 637.31 563.611 637.31 563.611C637.55 563.491 637.81 563.381 638.07 563.271C646.63 559.801 666.05 562.561 676.89 566.531C676.95 570.021 677.09 573.071 677.27 575.681H677.28Z" fill="#E2915A"/>
<path d="M630.44 551.1C634.55 573.21 663.08 572.48 675.41 571.1C678.88 570.71 681.06 570.27 681.06 570.27C684.97 569.23 687.15 563.06 688.17 554.99C690.18 539.02 687.64 515.57 684.94 509.57C680.88 500.55 673.23 490.78 644.5 497.83C615.76 504.88 625.17 522.78 630.44 551.11V551.1Z" fill="#FFB27D"/>
<path d="M686.01 497.231C682.08 491.791 673.76 485.151 666.2 481.061C649.95 472.271 629.16 481.341 629.07 481.381C605.6 491.701 599.47 509.651 611.92 537.621C625.08 567.201 637.6 563.871 637.6 563.871C637.6 563.871 634.94 562.211 635.18 553.001C635.19 552.481 635.21 552.041 635.24 551.661C635.36 549.771 634.7 547.881 633.28 546.621C630.37 544.021 628.94 536.151 631.39 533.961C634.33 531.321 638.47 534.531 639.79 537.001C640.94 538.741 643.01 539.351 644.94 538.141C652.24 533.521 647.5 524.291 654.48 518.641C661.46 512.991 675.62 517.731 686.09 513.231C699.8 508.121 688.97 501.351 686.01 497.251V497.231Z" fill="#233862"/>
<path d="M689.28 961.601C684.66 962.791 680.08 963.771 675.53 964.521C671.51 965.211 667.5 965.721 663.49 966.061C640.76 968.041 617.93 964.841 591.24 957.191C585.23 955.471 579.02 953.511 572.58 951.351C571.89 951.121 574.33 880.551 577.15 807.771C577.44 800.261 577.73 792.711 578.02 785.221C578.15 782.051 578.27 778.891 578.4 775.741C580.95 711.361 583.48 653.231 584.02 650.101C585.24 643.021 586.38 636.981 587.63 631.751C591.26 616.501 595.78 608.131 605.63 600.941C606.59 600.211 614.46 596.241 621.4 592.791C627.15 589.931 632.26 587.441 632.26 587.441C634.55 588.561 637.3 593.811 640.17 601.171C645.46 614.741 651.16 635.521 655.13 651.041C655.14 651.081 655.15 651.111 655.15 651.121C657.7 661.151 659.54 668.951 660.06 671.191C660.95 674.971 662.12 682.291 663.5 692.211C665.37 705.711 667.6 724.041 669.96 744.841C670.2 746.981 670.45 749.141 670.69 751.331C670.97 753.821 671.25 756.351 671.53 758.901C671.62 759.721 671.71 760.541 671.8 761.361C672.71 769.601 673.63 778.101 674.54 786.741C675.3 793.881 686.13 799.051 686.88 806.311C687.31 810.581 688.21 849.941 689.37 862.501C690.2 871.471 689.61 957.401 689.28 961.621V961.601Z" fill="#A3BBFF"/>
<path d="M610.9 676.041C610.87 676.191 609.06 741.141 657.92 749.031C706.78 756.921 674.32 759.001 674.32 759.001C674.32 759.001 582.4 755.091 580.88 752.671C579.36 750.241 610.91 676.041 610.91 676.041H610.9Z" fill="#97AEFF"/>
<path d="M652.18 776.91C652.18 776.91 651.26 777.56 649.5 778.69C649.47 778.7 649.44 778.73 649.41 778.74C641.96 783.5 619.83 796.47 587.63 805.16C584.25 806.08 580.75 806.94 577.15 807.75C577.44 800.24 577.73 792.69 578.02 785.2C573.77 784.87 569.69 784.33 565.91 783.53C566.04 782.54 566.17 781.55 566.3 780.56C570.4 778.88 574.47 777.26 578.4 775.72C581.6 774.47 584.69 773.28 587.62 772.18C600.85 767.15 610.66 763.75 610.66 763.75L649.82 776.15L652.17 776.9L652.18 776.91Z" fill="#97AEFF"/>
<path d="M662.54 775.821C662.54 775.821 657.51 777.081 649.5 778.691C649.47 778.691 649.44 778.691 649.41 778.711C634.64 781.681 609.8 785.841 587.62 785.621C584.35 785.581 581.13 785.461 578.02 785.211C573.77 784.881 569.69 784.341 565.91 783.541C557.8 781.831 551.01 778.931 546.57 774.411C513.57 740.801 564.58 620.171 575.3 608.431C587.82 594.731 610.67 589.921 623.29 588.271C623.82 588.201 624.32 588.141 624.81 588.081C629.25 587.551 632.09 587.441 632.25 587.441C632.25 587.441 631.26 590.621 629.6 596.021C628.96 598.111 628.21 600.531 627.39 603.231C619.64 628.611 604.68 678.491 598.09 706.621C595.67 716.911 594.38 724.291 594.97 726.501C597.54 736.111 624.21 741.051 641.1 743.231C648.15 744.141 653.49 744.571 654.69 744.661C654.77 744.661 654.85 744.661 654.94 744.681L655.92 748.681L658.26 758.291L660.56 767.731L662.53 775.841L662.54 775.821Z" fill="#A3BBFF"/>
<path d="M754.58 833.641L641.25 828.871L664.24 687.641L777.57 692.411L754.58 833.641Z" fill="#233862"/>
<path d="M654.96 744.662C654.96 744.662 677.02 743.122 678.13 748.262C680.71 760.252 659.16 770.092 652.18 769.422C645.2 768.752 649.88 743.862 654.96 744.662Z" fill="#FFB27D"/>
<path d="M771.37 721.091C771.37 721.091 750.26 714.491 748 719.241C742.72 730.301 761.4 744.861 768.35 745.821C775.3 746.781 776.5 721.491 771.37 721.091Z" fill="#FFB27D"/>
<path d="M634.55 580.33C634.55 580.33 625.27 584.75 620.62 591.43C620.62 591.43 655.31 651.66 655.16 651.1C655 650.54 643.43 588.05 634.56 580.33H634.55Z" fill="#97AEFF"/>
<path d="M677.76 581.18C680.82 582.33 686.67 588.34 688 591.65L692.12 644.23C692.12 644.23 683.31 605.64 678.83 588.2C677.69 583.77 677.9 582.42 677.76 581.17V581.18Z" fill="#97AEFF"/>
<path d="M701.81 689.22C701.81 689.22 702.71 685.3 707.87 685.76C713.03 686.22 742.01 687.64 742.01 687.64C742.01 687.64 747.6 687.55 747.08 691.13L701.82 689.22H701.81Z" fill="#C65447"/>
<path d="M668.57 556.091C668.57 556.091 672.33 559.521 678.4 558.461C682 557.831 684.01 553.151 684.01 553.151C684.01 553.151 677.09 551.901 668.56 556.091H668.57Z" fill="white"/>
<path d="M631.13 629.98H601.79V643.141H631.13V629.98Z" fill="#EBF3FA"/>
<path d="M217.31 1205.62C214.4 1201.05 205.66 1189.21 194.01 1190.77C181.32 1192.48 208.03 1200.85 216.21 1205.65C214.39 1205.68 212.83 1205.53 211.69 1205.12C206.22 1203.17 196.86 1206.91 193.86 1208.22H245.91C245.55 1206.97 244.61 1204.94 242.19 1203.46C241.34 1202.94 239.62 1202.86 237.4 1203.03C240.49 1199.38 242.64 1187.73 234.03 1190.73C227.74 1192.92 227.75 1200.04 228.37 1204.26C227.03 1204.47 225.67 1204.68 224.33 1204.88C221.74 1191.67 212.57 1152.96 193.99 1151.93C175.16 1150.88 209.96 1192.07 221.55 1205.25C220.07 1205.43 218.64 1205.56 217.31 1205.63V1205.62Z" fill="#82B378"/>
<path d="M2.92 1208.18H2573.71C2575.32 1208.18 2576.63 1209.49 2576.63 1211.1V1212.1C2576.63 1213.71 2575.32 1215.02 2573.71 1215.02H2.92C1.31 1215.02 0 1213.71 0 1212.1V1211.11C0 1209.5 1.31 1208.19 2.92 1208.19V1208.18Z" fill="white"/>
<path d="M1681.25 824L1671.94 807.344L1671.6 806.48L1671.17 807.344L1667.38 812.336C1667.09 811.696 1666.94 810.912 1666.94 809.984C1666.94 809.04 1667.1 808.064 1667.4 807.056C1667.7 806.048 1668.18 805.104 1668.82 804.224L1680 789.104H1685.18L1674.34 803.216L1686.77 824H1681.25ZM1660.27 824V789.104H1664.83V824H1660.27ZM1692.01 824V789.104H1696.61V820.496H1711.21L1711.16 824H1692.01ZM1716.94 824V789.104H1721.36V824H1716.94ZM1730.6 824V789.104H1735.16L1752.11 816.176L1752.68 817.76L1752.59 816.08V789.104H1756.62V824H1752.54L1735.07 796.112L1734.39 794.48L1734.49 796.112V824H1730.6ZM1765.83 824V789.104H1770.25V824H1765.83ZM1799.75 824L1790.44 807.344L1790.1 806.48L1789.67 807.344L1785.88 812.336C1785.59 811.696 1785.44 810.912 1785.44 809.984C1785.44 809.04 1785.6 808.064 1785.9 807.056C1786.2 806.048 1786.68 805.104 1787.32 804.224L1798.5 789.104H1803.68L1792.84 803.216L1805.27 824H1799.75ZM1778.77 824V789.104H1783.33V824H1778.77Z" fill="white"/>
</g>
<defs>
<clipPath id="clip0_330_4">
<rect width="2576.63" height="1215.01" fill="white"/>
</clipPath>
</defs>
</svg>
